<svg width="24" height="24" viewBox="0 0 24 24" fill="none" xmlns="http://www.w3.org/2000/svg">
<path d="M10.4859 0.160323C10.8534 0.0685483 11.2295 -0.000282475 11.6097 0.000130923C12.9241 -0.0104107 14.2243 0.616301 15.0393 1.64091C15.2705 1.92739 15.4509 2.25026 15.6067 2.58221C15.7261 2.83356 15.838 3.09379 16.0181 3.30959C16.1491 3.46813 16.3265 3.59276 16.5281 3.64299C16.6336 3.66594 16.7343 3.7112 16.8438 3.71678C17.0786 3.73828 17.3056 3.65002 17.5104 3.5444C17.7103 3.44187 17.9008 3.32013 18.1107 3.23807C18.4694 3.1248 18.8342 3.01711 19.2105 2.98569C20.3799 2.91438 21.537 3.72898 21.8668 4.8466C21.9 4.94685 21.942 5.04483 21.9638 5.14859C22.1507 6.0252 21.8851 6.98552 21.2693 7.64034C21.1094 7.80364 20.9462 7.96672 20.7529 8.09136C20.1654 8.48202 19.418 8.5955 18.7302 8.46239C18.08 8.33981 17.4628 7.99194 17.0649 7.45969C16.8282 7.08991 16.3545 6.92434 15.929 6.97601C15.6229 7.01033 15.3238 7.15832 15.1347 7.4045C14.2311 8.67942 12.6065 9.40328 11.0493 9.22965C10.4071 9.16123 9.78207 8.94234 9.2411 8.59095C8.29581 7.98243 7.59348 7.01673 7.29382 5.93818C7.16548 5.48985 7.12706 5.02167 7.12727 4.55722C7.12872 4.42907 7.13724 4.30133 7.14949 4.174C7.28136 2.92905 7.93364 1.75066 8.9105 0.964175C9.37255 0.592323 9.91041 0.310799 10.4859 0.160323Z" fill="url(#paint0_linear_8_2)"/>
<path d="M10.4859 0.160323C10.8534 0.0685483 11.2295 -0.000282475 11.6097 0.000130923C12.9241 -0.0104107 14.2243 0.616301 15.0393 1.64091C15.2705 1.92739 15.4509 2.25026 15.6067 2.58221C15.7261 2.83356 15.838 3.09379 16.0181 3.30959C16.1491 3.46813 16.3265 3.59276 16.5281 3.64299C16.6336 3.66594 16.7343 3.7112 16.8438 3.71678C17.0786 3.73828 17.3056 3.65002 17.5104 3.5444C17.7103 3.44187 17.9008 3.32013 18.1107 3.23807C18.4694 3.1248 18.8342 3.01711 19.2105 2.98569C20.3799 2.91438 21.537 3.72898 21.8668 4.8466C21.9 4.94685 21.942 5.04483 21.9638 5.14859C22.1507 6.0252 21.8851 6.98552 21.2693 7.64034C21.1094 7.80364 20.9462 7.96672 20.7529 8.09136C20.1654 8.48202 19.418 8.5955 18.7302 8.46239C18.08 8.33981 17.4628 7.99194 17.0649 7.45969C16.8282 7.08991 16.3545 6.92434 15.929 6.97601C15.6229 7.01033 15.3238 7.15832 15.1347 7.4045C14.2311 8.67942 12.6065 9.40328 11.0493 9.22965C10.4071 9.16123 9.78207 8.94234 9.2411 8.59095C8.29581 7.98243 7.59348 7.01673 7.29382 5.93818C7.16548 5.48985 7.12706 5.02167 7.12727 4.55722C7.12872 4.42907 7.13724 4.30133 7.14949 4.174C7.28136 2.92905 7.93364 1.75066 8.9105 0.964175C9.37255 0.592323 9.91041 0.310799 10.4859 0.160323Z" fill="url(#paint1_linear_8_2)"/>
<path d="M23.189 16.3957C23.0878 16.7592 22.9625 17.1187 22.7745 17.4477C22.1353 18.5909 20.9462 19.4074 19.6487 19.6076C19.2843 19.6664 18.9131 19.6633 18.5462 19.6344C18.2676 19.6138 17.985 19.5823 17.7075 19.6317C17.5044 19.667 17.3079 19.759 17.1646 19.9088C17.0925 19.9888 17.0032 20.0537 16.9444 20.1457C16.8097 20.3384 16.7749 20.5785 16.7661 20.8079C16.7571 21.0316 16.7695 21.2565 16.7377 21.4788C16.6597 21.8452 16.5738 22.2142 16.4156 22.5555C15.9011 23.6031 14.6183 24.203 13.4789 23.9372C13.3749 23.9165 13.2686 23.9045 13.1672 23.8722C12.3089 23.6015 11.6007 22.8978 11.3322 22.0416C11.2684 21.8226 11.2064 21.6009 11.1929 21.372C11.1413 20.6706 11.4108 19.9676 11.8665 19.4377C12.2944 18.9353 12.9029 18.5726 13.5643 18.4906C14.0042 18.4681 14.3826 18.1397 14.5474 17.7458C14.6684 17.4638 14.6866 17.1319 14.5648 16.8467C13.8964 15.4354 14.0653 13.6718 14.9853 12.4092C15.3619 11.887 15.8615 11.4538 16.4355 11.1588C17.4336 10.6406 18.624 10.5089 19.7144 10.7816C20.1696 10.8917 20.5976 11.0894 21.0034 11.3187C21.1147 11.3832 21.2221 11.4536 21.3274 11.527C22.3503 12.2553 23.0583 13.4014 23.2637 14.6352C23.3607 15.2187 23.3414 15.8232 23.189 16.3957Z" fill="url(#paint2_linear_8_2)"/>
<path d="M23.189 16.3957C23.0878 16.7592 22.9625 17.1187 22.7745 17.4477C22.1353 18.5909 20.9462 19.4074 19.6487 19.6076C19.2843 19.6664 18.9131 19.6633 18.5462 19.6344C18.2676 19.6138 17.985 19.5823 17.7075 19.6317C17.5044 19.667 17.3079 19.759 17.1646 19.9088C17.0925 19.9888 17.0032 20.0537 16.9444 20.1457C16.8097 20.3384 16.7749 20.5785 16.7661 20.8079C16.7571 21.0316 16.7695 21.2565 16.7377 21.4788C16.6597 21.8452 16.5738 22.2142 16.4156 22.5555C15.9011 23.6031 14.6183 24.203 13.4789 23.9372C13.3749 23.9165 13.2686 23.9045 13.1672 23.8722C12.3089 23.6015 11.6007 22.8978 11.3322 22.0416C11.2684 21.8226 11.2064 21.6009 11.1929 21.372C11.1413 20.6706 11.4108 19.9676 11.8665 19.4377C12.2944 18.9353 12.9029 18.5726 13.5643 18.4906C14.0042 18.4681 14.3826 18.1397 14.5474 17.7458C14.6684 17.4638 14.6866 17.1319 14.5648 16.8467C13.8964 15.4354 14.0653 13.6718 14.9853 12.4092C15.3619 11.887 15.8615 11.4538 16.4355 11.1588C17.4336 10.6406 18.624 10.5089 19.7144 10.7816C20.1696 10.8917 20.5976 11.0894 21.0034 11.3187C21.1147 11.3832 21.2221 11.4536 21.3274 11.527C22.3503 12.2553 23.0583 13.4014 23.2637 14.6352C23.3607 15.2187 23.3414 15.8232 23.189 16.3957Z" fill="url(#paint3_linear_8_2)"/>
<path d="M2.95222 17.8566C2.68963 17.5846 2.44282 17.2939 2.25432 16.9652C1.59234 15.835 1.49305 14.4005 1.98167 13.1875C2.11669 12.8455 2.30859 12.5292 2.5207 12.2298C2.68057 12.0018 2.8519 11.7759 2.95065 11.5131C3.02381 11.3212 3.04441 11.1061 2.98806 10.9069C2.95567 10.8044 2.94511 10.6949 2.89562 10.5976C2.79772 10.384 2.60802 10.2318 2.41422 10.1073C2.22549 9.9855 2.02475 9.88145 1.84891 9.74084C1.57201 9.48727 1.29689 9.22555 1.08259 8.91608C0.439615 7.94129 0.575234 6.53707 1.38601 5.69709C1.45692 5.61859 1.52152 5.53369 1.60117 5.46332C2.27274 4.86646 3.24206 4.61895 4.11888 4.82564C4.34069 4.88267 4.56397 4.94268 4.76868 5.0478C5.40113 5.36129 5.87129 5.9506 6.09683 6.61089C6.31288 7.23348 6.31608 7.93944 6.04958 8.54753C5.84471 8.93571 5.93561 9.42715 6.19201 9.76908C6.37396 10.0165 6.65154 10.2013 6.96017 10.2425C8.52067 10.3898 9.95876 11.4338 10.5808 12.8653C10.8401 13.454 10.9597 14.1027 10.9219 14.7446C10.8608 15.8635 10.3676 16.9499 9.5759 17.7444C9.2487 18.078 8.85953 18.3437 8.45443 18.5742C8.34196 18.6366 8.22634 18.6927 8.10923 18.7453C6.95814 19.2497 5.60662 19.2715 4.43562 18.8182C3.88187 18.6038 3.36924 18.2789 2.95222 17.8566Z" fill="url(#paint4_linear_8_2)"/>
<path d="M2.95222 17.8566C2.68963 17.5846 2.44282 17.2939 2.25432 16.9652C1.59234 15.835 1.49305 14.4005 1.98167 13.1875C2.11669 12.8455 2.30859 12.5292 2.5207 12.2298C2.68057 12.0018 2.8519 11.7759 2.95065 11.5131C3.02381 11.3212 3.04441 11.1061 2.98806 10.9069C2.95567 10.8044 2.94511 10.6949 2.89562 10.5976C2.79772 10.384 2.60802 10.2318 2.41422 10.1073C2.22549 9.9855 2.02475 9.88145 1.84891 9.74084C1.57201 9.48727 1.29689 9.22555 1.08259 8.91608C0.439615 7.94129 0.575234 6.53707 1.38601 5.69709C1.45692 5.61859 1.52152 5.53369 1.60117 5.46332C2.27274 4.86646 3.24206 4.61895 4.11888 4.82564C4.34069 4.88267 4.56397 4.94268 4.76868 5.0478C5.40113 5.36129 5.87129 5.9506 6.09683 6.61089C6.31288 7.23348 6.31608 7.93944 6.04958 8.54753C5.84471 8.93571 5.93561 9.42715 6.19201 9.76908C6.37396 10.0165 6.65154 10.2013 6.96017 10.2425C8.52067 10.3898 9.95876 11.4338 10.5808 12.8653C10.8401 13.454 10.9597 14.1027 10.9219 14.7446C10.8608 15.8635 10.3676 16.9499 9.5759 17.7444C9.2487 18.078 8.85953 18.3437 8.45443 18.5742C8.34196 18.6366 8.22634 18.6927 8.10923 18.7453C6.95814 19.2497 5.60662 19.2715 4.43562 18.8182C3.88187 18.6038 3.36924 18.2789 2.95222 17.8566Z" fill="url(#paint5_linear_8_2)"/>
<defs>
<linearGradient id="paint0_linear_8_2" x1="12" y1="0" x2="12" y2="24" gradientUnits="userSpaceOnUse">
<stop stop-color="#D9D9D9"/>
<stop offset="1" stop-color="#737373"/>
</linearGradient>
<linearGradient id="paint1_linear_8_2" x1="16.7559" y1="21.7021" x2="9.96338" y2="-0.911721" gradientUnits="userSpaceOnUse">
<stop stop-color="#F3602A"/>
<stop offset="1" stop-color="#F4A446"/>
</linearGradient>
<linearGradient id="paint2_linear_8_2" x1="12" y1="0" x2="12" y2="24" gradientUnits="userSpaceOnUse">
<stop stop-color="#D9D9D9"/>
<stop offset="1" stop-color="#737373"/>
</linearGradient>
<linearGradient id="paint3_linear_8_2" x1="16.7559" y1="21.7021" x2="9.96338" y2="-0.911721" gradientUnits="userSpaceOnUse">
<stop stop-color="#F3602A"/>
<stop offset="1" stop-color="#F4A446"/>
</linearGradient>
<linearGradient id="paint4_linear_8_2" x1="12" y1="0" x2="12" y2="24" gradientUnits="userSpaceOnUse">
<stop stop-color="#D9D9D9"/>
<stop offset="1" stop-color="#737373"/>
</linearGradient>
<linearGradient id="paint5_linear_8_2" x1="16.7559" y1="21.7021" x2="9.96338" y2="-0.911721" gradientUnits="userSpaceOnUse">
<stop stop-color="#F3602A"/>
<stop offset="1" stop-color="#F4A446"/>
</linearGradient>
</defs>
</svg>
