<svg width="135" height="37" viewBox="0 0 135 37" fill="none" xmlns="http://www.w3.org/2000/svg">
<g clip-path="url(#clip0_12_21)">
<path d="M15.0308 0.246818C15.5941 0.10553 16.1704 -0.000434871 16.753 0.000201557C18.767 -0.0160274 20.7593 0.948798 22.0083 2.52619C22.3625 2.96723 22.639 3.46428 22.8777 3.97533C23.0606 4.36228 23.2322 4.76291 23.5081 5.09513C23.7088 5.3392 23.9806 5.53108 24.2896 5.60841C24.4512 5.64373 24.6056 5.71342 24.7733 5.72201C25.1332 5.75511 25.481 5.61923 25.7947 5.45662C26.1012 5.29879 26.393 5.11136 26.7147 4.98503C27.2643 4.81065 27.8234 4.64486 28.4 4.59649C30.1918 4.4867 31.9649 5.74079 32.4702 7.46137C32.5211 7.6157 32.5854 7.76654 32.6188 7.92628C32.9052 9.27583 32.4982 10.7543 31.5547 11.7624C31.3097 12.0137 31.0596 12.2648 30.7633 12.4567C29.8631 13.0581 28.7179 13.2328 27.6639 13.0279C26.6676 12.8392 25.7219 12.3036 25.1122 11.4842C24.7494 10.915 24.0236 10.6601 23.3715 10.7396C22.9025 10.7924 22.4443 11.0203 22.1544 11.3993C20.7698 13.362 18.2804 14.4764 15.8941 14.2091C14.9102 14.1038 13.9524 13.7668 13.1235 13.2258C11.6749 12.289 10.5987 10.8023 10.1396 9.14186C9.9429 8.45165 9.88403 7.7309 9.88435 7.01587C9.88658 6.81858 9.89963 6.62192 9.9184 6.4259C10.1205 4.5093 11.12 2.69516 12.6169 1.48435C13.3249 0.911885 14.1491 0.478478 15.0308 0.246818Z" fill="url(#paint0_linear_12_21)"/>
<path d="M15.0308 0.246818C15.5941 0.10553 16.1704 -0.000434871 16.753 0.000201557C18.767 -0.0160274 20.7593 0.948798 22.0083 2.52619C22.3625 2.96723 22.639 3.46428 22.8777 3.97533C23.0606 4.36228 23.2322 4.76291 23.5081 5.09513C23.7088 5.3392 23.9806 5.53108 24.2896 5.60841C24.4512 5.64373 24.6056 5.71342 24.7733 5.72201C25.1332 5.75511 25.481 5.61923 25.7947 5.45662C26.1012 5.29879 26.393 5.11136 26.7147 4.98503C27.2643 4.81065 27.8234 4.64486 28.4 4.59649C30.1918 4.4867 31.9649 5.74079 32.4702 7.46137C32.5211 7.6157 32.5854 7.76654 32.6188 7.92628C32.9052 9.27583 32.4982 10.7543 31.5547 11.7624C31.3097 12.0137 31.0596 12.2648 30.7633 12.4567C29.8631 13.0581 28.7179 13.2328 27.6639 13.0279C26.6676 12.8392 25.7219 12.3036 25.1122 11.4842C24.7494 10.915 24.0236 10.6601 23.3715 10.7396C22.9025 10.7924 22.4443 11.0203 22.1544 11.3993C20.7698 13.362 18.2804 14.4764 15.8941 14.2091C14.9102 14.1038 13.9524 13.7668 13.1235 13.2258C11.6749 12.289 10.5987 10.8023 10.1396 9.14186C9.9429 8.45165 9.88403 7.7309 9.88435 7.01587C9.88658 6.81858 9.89963 6.62192 9.9184 6.4259C10.1205 4.5093 11.12 2.69516 12.6169 1.48435C13.3249 0.911885 14.1491 0.478478 15.0308 0.246818Z" fill="url(#paint1_linear_12_21)"/>
<path d="M34.4963 25.2412C34.3413 25.8009 34.1492 26.3544 33.8612 26.8609C32.8817 28.6207 31.0596 29.8778 29.0713 30.186C28.513 30.2765 27.9442 30.2718 27.3819 30.2273C26.9551 30.1955 26.522 30.1471 26.0969 30.2231C25.7855 30.2774 25.4846 30.4191 25.2649 30.6497C25.1544 30.7729 25.0176 30.8728 24.9274 31.0144C24.7211 31.3111 24.6677 31.6807 24.6543 32.0339C24.6405 32.3783 24.6595 32.7246 24.6107 33.0667C24.4913 33.6308 24.3596 34.1989 24.1173 34.7243C23.3287 36.3371 21.3632 37.2607 19.6172 36.8514C19.4579 36.8196 19.295 36.8011 19.1395 36.7513C17.8244 36.3346 16.7392 35.2513 16.3277 33.9332C16.23 33.5961 16.135 33.2547 16.1142 32.9023C16.0352 31.8225 16.4482 30.7402 17.1464 29.9245C17.8021 29.151 18.7345 28.5926 19.748 28.4665C20.4222 28.4318 21.002 27.9261 21.2545 27.3197C21.4399 26.8857 21.4678 26.3747 21.2812 25.9356C20.2569 23.7629 20.5157 21.0478 21.9255 19.104C22.5025 18.3001 23.2682 17.6332 24.1477 17.179C25.6772 16.3812 27.5013 16.1786 29.1721 16.5983C29.8695 16.7678 30.5255 17.0721 31.1473 17.4252C31.3178 17.5244 31.4824 17.6328 31.6437 17.7458C33.2111 18.8672 34.296 20.6316 34.6107 22.5309C34.7594 23.4292 34.7298 24.3599 34.4963 25.2412Z" fill="url(#paint2_linear_12_21)"/>
<path d="M34.4963 25.2412C34.3413 25.8009 34.1492 26.3544 33.8612 26.8609C32.8817 28.6207 31.0596 29.8778 29.0713 30.186C28.513 30.2765 27.9442 30.2718 27.3819 30.2273C26.9551 30.1955 26.522 30.1471 26.0969 30.2231C25.7855 30.2774 25.4846 30.4191 25.2649 30.6497C25.1544 30.7729 25.0176 30.8728 24.9274 31.0144C24.7211 31.3111 24.6677 31.6807 24.6543 32.0339C24.6405 32.3783 24.6595 32.7246 24.6107 33.0667C24.4913 33.6308 24.3596 34.1989 24.1173 34.7243C23.3287 36.3371 21.3632 37.2607 19.6172 36.8514C19.4579 36.8196 19.295 36.8011 19.1395 36.7513C17.8244 36.3346 16.7392 35.2513 16.3277 33.9332C16.23 33.5961 16.135 33.2547 16.1142 32.9023C16.0352 31.8225 16.4482 30.7402 17.1464 29.9245C17.8021 29.151 18.7345 28.5926 19.748 28.4665C20.4222 28.4318 21.002 27.9261 21.2545 27.3197C21.4399 26.8857 21.4678 26.3747 21.2812 25.9356C20.2569 23.7629 20.5157 21.0478 21.9255 19.104C22.5025 18.3001 23.2682 17.6332 24.1477 17.179C25.6772 16.3812 27.5013 16.1786 29.1721 16.5983C29.8695 16.7678 30.5255 17.0721 31.1473 17.4252C31.3178 17.5244 31.4824 17.6328 31.6437 17.7458C33.2111 18.8672 34.296 20.6316 34.6107 22.5309C34.7594 23.4292 34.7298 24.3599 34.4963 25.2412Z" fill="url(#paint3_linear_12_21)"/>
<path d="M3.48677 27.4903C3.08439 27.0716 2.7062 26.6241 2.41736 26.118C1.40298 24.3781 1.25084 22.1697 1.99957 20.3022C2.20646 19.7757 2.50052 19.2888 2.82555 18.8279C3.07051 18.4769 3.33305 18.129 3.48436 17.7246C3.59647 17.4291 3.62804 17.0979 3.54169 16.7913C3.49205 16.6335 3.47588 16.4649 3.40005 16.3151C3.25002 15.9863 2.95934 15.7519 2.66237 15.5603C2.37318 15.3727 2.06557 15.2126 1.79614 14.9961C1.37183 14.6057 0.950245 14.2028 0.621879 13.7264C-0.363382 12.2257 -0.155569 10.0639 1.08681 8.7707C1.19547 8.64985 1.29446 8.51915 1.41651 8.41081C2.44559 7.49195 3.93091 7.11089 5.27449 7.4291C5.61438 7.5169 5.95652 7.60929 6.2702 7.77112C7.23932 8.25374 7.95977 9.16098 8.30537 10.1775C8.63644 11.136 8.64133 12.2228 8.23297 13.159C7.91904 13.7566 8.05832 14.5132 8.45121 15.0396C8.73003 15.4204 9.15537 15.705 9.62829 15.7683C12.0195 15.9952 14.2231 17.6023 15.1764 19.8063C15.5736 20.7125 15.7569 21.7112 15.6991 22.6994C15.6054 24.4219 14.8496 26.0944 13.6365 27.3176C13.1351 27.8311 12.5388 28.2402 11.918 28.5951C11.7457 28.6911 11.5685 28.7775 11.389 28.8585C9.62519 29.6351 7.5542 29.6686 5.75983 28.9708C4.91131 28.6406 4.12579 28.1405 3.48677 27.4903Z" fill="url(#paint4_linear_12_21)"/>
<path d="M3.48677 27.4903C3.08439 27.0716 2.7062 26.6241 2.41736 26.118C1.40298 24.3781 1.25084 22.1697 1.99957 20.3022C2.20646 19.7757 2.50052 19.2888 2.82555 18.8279C3.07051 18.4769 3.33305 18.129 3.48436 17.7246C3.59647 17.4291 3.62804 17.0979 3.54169 16.7913C3.49205 16.6335 3.47588 16.4649 3.40005 16.3151C3.25002 15.9863 2.95934 15.7519 2.66237 15.5603C2.37318 15.3727 2.06557 15.2126 1.79614 14.9961C1.37183 14.6057 0.950245 14.2028 0.621879 13.7264C-0.363382 12.2257 -0.155569 10.0639 1.08681 8.7707C1.19547 8.64985 1.29446 8.51915 1.41651 8.41081C2.44559 7.49195 3.93091 7.11089 5.27449 7.4291C5.61438 7.5169 5.95652 7.60929 6.2702 7.77112C7.23932 8.25374 7.95977 9.16098 8.30537 10.1775C8.63644 11.136 8.64133 12.2228 8.23297 13.159C7.91904 13.7566 8.05832 14.5132 8.45121 15.0396C8.73003 15.4204 9.15537 15.705 9.62829 15.7683C12.0195 15.9952 14.2231 17.6023 15.1764 19.8063C15.5736 20.7125 15.7569 21.7112 15.6991 22.6994C15.6054 24.4219 14.8496 26.0944 13.6365 27.3176C13.1351 27.8311 12.5388 28.2402 11.918 28.5951C11.7457 28.6911 11.5685 28.7775 11.389 28.8585C9.62519 29.6351 7.5542 29.6686 5.75983 28.9708C4.91131 28.6406 4.12579 28.1405 3.48677 27.4903Z" fill="url(#paint5_linear_12_21)"/>
<path d="M7.50442 8.42682C8.23345 7.6752 9.04045 6.99646 9.9184 6.4259C9.89963 6.62192 9.88658 6.81858 9.88435 7.01587C9.88403 7.7309 9.9429 8.45165 10.1396 9.14186C10.5987 10.8023 11.6749 12.289 13.1235 13.2258C13.9524 13.7668 14.9102 14.1038 15.8941 14.2091C18.2804 14.4764 20.7698 13.362 22.1544 11.3993C22.4443 11.0203 22.9025 10.7924 23.3715 10.7396C24.0236 10.6601 24.7494 10.915 25.1122 11.4842C25.7219 12.3036 26.6676 12.8392 27.6639 13.0279C28.7179 13.2328 29.8631 13.0581 30.7633 12.4567C31.5614 14.2136 31.9916 16.1356 32.025 18.0649C31.6206 17.7419 31.1776 17.4682 30.7111 17.2445C28.3389 16.0064 25.2458 16.2883 23.1621 17.978C22.3564 18.6358 21.7149 19.4934 21.3066 20.4499C20.8242 21.577 20.6486 22.8333 20.801 24.0499C20.8856 24.7293 21.0731 25.3969 21.3633 26.0174C21.6898 26.833 21.3 27.8213 20.569 28.2767C20.3584 28.4075 20.1197 28.5026 19.8699 28.517C18.7873 28.6261 17.7916 29.232 17.1142 30.0711C16.5554 30.76 16.1945 31.6195 16.1497 32.5093C13.8528 32.2553 11.624 31.4235 9.71887 30.1163C9.43534 29.9158 9.1445 29.7217 8.88547 29.4901C8.83392 29.4831 8.78205 29.4783 8.7305 29.4732C8.82469 29.4528 8.92079 29.463 9.01626 29.4579C10.0613 29.3631 11.091 29.0468 11.9925 28.5058C12.3168 28.3053 12.642 28.1039 12.9386 27.863C14.5602 26.5666 15.5661 24.5288 15.5931 22.4515C15.6154 21.0784 15.1629 19.7091 14.3559 18.6008C13.2351 17.0603 11.4611 15.9933 9.55913 15.7979C8.71173 15.6636 8.07243 14.8551 8.02979 14.0156C8.01866 13.7598 8.05016 13.4944 8.16694 13.263C8.51348 12.5423 8.60799 11.714 8.48484 10.9273C8.34801 10.0535 7.95597 9.21504 7.34754 8.57033C7.41278 8.53915 7.45319 8.47551 7.50442 8.42682Z" fill="white"/>
<path d="M45.4912 29.3846V7.39857H50.278V25.2251H58.2008V29.3846H45.4912Z" fill="white"/>
<path d="M70.6121 29.8137C68.4333 29.8137 66.5186 29.3405 64.868 28.3942C63.2394 27.4479 61.9629 26.1274 61.0386 24.4328C60.1363 22.7161 59.6851 20.7354 59.6851 18.4906C59.6851 16.2018 60.1363 14.21 61.0386 12.5154C61.9629 10.8208 63.2394 9.50034 64.868 8.55399C66.5186 7.60765 68.4333 7.13448 70.6121 7.13448C72.7909 7.13448 74.6945 7.60765 76.3231 8.55399C77.9737 9.47833 79.2502 10.7878 80.1525 12.4824C81.0549 14.155 81.506 16.1137 81.506 18.3586C81.506 20.6474 81.0549 22.6501 80.1525 24.3667C79.2502 26.0834 77.9737 27.4259 76.3231 28.3942C74.6945 29.3405 72.7909 29.8137 70.6121 29.8137ZM70.6121 25.6212C72.4387 25.6212 73.8913 24.972 74.9697 23.6735C76.048 22.375 76.5872 20.6474 76.5872 18.4906C76.5872 17.0601 76.3341 15.8056 75.828 14.7272C75.3438 13.6488 74.6505 12.8125 73.7482 12.2183C72.8459 11.6241 71.8005 11.338 70.6121 11.36C69.4236 11.338 68.3783 11.6241 67.4759 12.2183C66.5956 12.8125 65.9024 13.6488 65.3962 14.7272C64.89 15.8056 64.6369 17.0601 64.6369 18.4906C64.6369 19.9211 64.879 21.1756 65.3632 22.254C65.8693 23.3104 66.5736 24.1357 67.4759 24.7299C68.3783 25.3241 69.4236 25.6212 70.6121 25.6212Z" fill="white"/>
<path d="M85.1443 29.3846V7.39857H89.931V15.9157L97.0946 7.39857H102.806L93.7604 17.8304L102.344 29.3846H96.5334L89.931 20.5043V29.3846H85.1443Z" fill="white"/>
<path d="M105.719 29.3846V7.39857H110.505V29.3846H105.719Z" fill="white"/>
<path d="M115.384 29.3846V7.39857H120.996L130.107 22.8152V7.39857H134.498V29.3846H128.952L119.774 13.8689V29.3846H115.384Z" fill="white"/>
</g>
<defs>
<linearGradient id="paint0_linear_12_21" x1="17.351" y1="0" x2="17.351" y2="36.9481" gradientUnits="userSpaceOnUse">
<stop stop-color="#D9D9D9"/>
<stop offset="1" stop-color="#737373"/>
</linearGradient>
<linearGradient id="paint1_linear_12_21" x1="24.6386" y1="33.4104" x2="14.1407" y2="-1.3766" gradientUnits="userSpaceOnUse">
<stop stop-color="#F3602A"/>
<stop offset="1" stop-color="#F4A446"/>
</linearGradient>
<linearGradient id="paint2_linear_12_21" x1="17.351" y1="0" x2="17.351" y2="36.9481" gradientUnits="userSpaceOnUse">
<stop stop-color="#D9D9D9"/>
<stop offset="1" stop-color="#737373"/>
</linearGradient>
<linearGradient id="paint3_linear_12_21" x1="24.6386" y1="33.4104" x2="14.1407" y2="-1.3766" gradientUnits="userSpaceOnUse">
<stop stop-color="#F3602A"/>
<stop offset="1" stop-color="#F4A446"/>
</linearGradient>
<linearGradient id="paint4_linear_12_21" x1="17.351" y1="0" x2="17.351" y2="36.9481" gradientUnits="userSpaceOnUse">
<stop stop-color="#D9D9D9"/>
<stop offset="1" stop-color="#737373"/>
</linearGradient>
<linearGradient id="paint5_linear_12_21" x1="24.6386" y1="33.4104" x2="14.1407" y2="-1.3766" gradientUnits="userSpaceOnUse">
<stop stop-color="#F3602A"/>
<stop offset="1" stop-color="#F4A446"/>
</linearGradient>
<clipPath id="clip0_12_21">
<rect width="134.496" height="37" fill="white"/>
</clipPath>
</defs>
</svg>
